<mxfile host="app.diagrams.net" modified="2021-06-04T18:20:01.686Z" agent="5.0 (Windows NT 10.0; Win64; x64) AppleWebKit/537.36 (KHTML, like Gecko) Chrome/90.0.4430.212 Safari/537.36" etag="wp8YvGd9KhVPpsR8UZoo" version="14.7.6" type="github">
  <diagram id="C5RBs43oDa-KdzZeNtuy" name="Page-1">
    <mxGraphModel dx="1422" dy="1941" grid="1" gridSize="10" guides="1" tooltips="1" connect="1" arrows="1" fold="1" page="1" pageScale="1" pageWidth="827" pageHeight="1169" math="0" shadow="0">
      <root>
        <mxCell id="WIyWlLk6GJQsqaUBKTNV-0" />
        <mxCell id="WIyWlLk6GJQsqaUBKTNV-1" parent="WIyWlLk6GJQsqaUBKTNV-0" />
        <mxCell id="sPBNxdajeekj3TMiFlpl-26" style="edgeStyle=orthogonalEdgeStyle;rounded=0;orthogonalLoop=1;jettySize=auto;html=1;exitX=0.5;exitY=1;exitDx=0;exitDy=0;entryX=0.5;entryY=0;entryDx=0;entryDy=0;" edge="1" parent="WIyWlLk6GJQsqaUBKTNV-1" source="sPBNxdajeekj3TMiFlpl-0" target="sPBNxdajeekj3TMiFlpl-25">
          <mxGeometry relative="1" as="geometry" />
        </mxCell>
        <mxCell id="sPBNxdajeekj3TMiFlpl-49" style="edgeStyle=orthogonalEdgeStyle;rounded=0;orthogonalLoop=1;jettySize=auto;html=1;exitX=1;exitY=0.5;exitDx=0;exitDy=0;" edge="1" parent="WIyWlLk6GJQsqaUBKTNV-1" source="sPBNxdajeekj3TMiFlpl-0" target="sPBNxdajeekj3TMiFlpl-48">
          <mxGeometry relative="1" as="geometry" />
        </mxCell>
        <mxCell id="sPBNxdajeekj3TMiFlpl-0" value="FrontEnd&lt;br&gt;" style="whiteSpace=wrap;html=1;aspect=fixed;" vertex="1" parent="WIyWlLk6GJQsqaUBKTNV-1">
          <mxGeometry x="40" y="230" width="80" height="80" as="geometry" />
        </mxCell>
        <mxCell id="sPBNxdajeekj3TMiFlpl-37" style="edgeStyle=orthogonalEdgeStyle;rounded=0;orthogonalLoop=1;jettySize=auto;html=1;exitX=0.5;exitY=0;exitDx=0;exitDy=0;exitPerimeter=0;entryX=0.5;entryY=0;entryDx=0;entryDy=0;" edge="1" parent="WIyWlLk6GJQsqaUBKTNV-1" source="sPBNxdajeekj3TMiFlpl-3" target="sPBNxdajeekj3TMiFlpl-14">
          <mxGeometry relative="1" as="geometry" />
        </mxCell>
        <mxCell id="sPBNxdajeekj3TMiFlpl-43" style="edgeStyle=orthogonalEdgeStyle;rounded=0;orthogonalLoop=1;jettySize=auto;html=1;" edge="1" parent="WIyWlLk6GJQsqaUBKTNV-1" source="sPBNxdajeekj3TMiFlpl-3" target="sPBNxdajeekj3TMiFlpl-42">
          <mxGeometry relative="1" as="geometry" />
        </mxCell>
        <mxCell id="sPBNxdajeekj3TMiFlpl-3" value="FireBase" style="shape=cylinder3;whiteSpace=wrap;html=1;boundedLbl=1;backgroundOutline=1;size=15;" vertex="1" parent="WIyWlLk6GJQsqaUBKTNV-1">
          <mxGeometry x="384" y="20" width="60" height="80" as="geometry" />
        </mxCell>
        <mxCell id="sPBNxdajeekj3TMiFlpl-33" style="edgeStyle=orthogonalEdgeStyle;rounded=0;orthogonalLoop=1;jettySize=auto;html=1;exitX=0.5;exitY=0;exitDx=0;exitDy=0;exitPerimeter=0;entryX=0.5;entryY=1;entryDx=0;entryDy=0;" edge="1" parent="WIyWlLk6GJQsqaUBKTNV-1" source="sPBNxdajeekj3TMiFlpl-4" target="sPBNxdajeekj3TMiFlpl-32">
          <mxGeometry relative="1" as="geometry" />
        </mxCell>
        <mxCell id="sPBNxdajeekj3TMiFlpl-4" value="BackEnd" style="shape=cylinder3;whiteSpace=wrap;html=1;boundedLbl=1;backgroundOutline=1;size=15;" vertex="1" parent="WIyWlLk6GJQsqaUBKTNV-1">
          <mxGeometry x="550" y="360" width="60" height="80" as="geometry" />
        </mxCell>
        <mxCell id="sPBNxdajeekj3TMiFlpl-5" value="Grupo De Usuarios&lt;br&gt;(tema /suscribe)&lt;br&gt;Token" style="rounded=1;whiteSpace=wrap;html=1;" vertex="1" parent="WIyWlLk6GJQsqaUBKTNV-1">
          <mxGeometry x="260" y="-110" width="120" height="60" as="geometry" />
        </mxCell>
        <mxCell id="sPBNxdajeekj3TMiFlpl-18" style="edgeStyle=orthogonalEdgeStyle;rounded=0;orthogonalLoop=1;jettySize=auto;html=1;entryX=1;entryY=0.5;entryDx=0;entryDy=0;" edge="1" parent="WIyWlLk6GJQsqaUBKTNV-1" source="sPBNxdajeekj3TMiFlpl-8" target="sPBNxdajeekj3TMiFlpl-10">
          <mxGeometry relative="1" as="geometry" />
        </mxCell>
        <mxCell id="sPBNxdajeekj3TMiFlpl-22" style="edgeStyle=orthogonalEdgeStyle;rounded=0;orthogonalLoop=1;jettySize=auto;html=1;exitX=0.5;exitY=1;exitDx=0;exitDy=0;entryX=0;entryY=0.5;entryDx=0;entryDy=0;" edge="1" parent="WIyWlLk6GJQsqaUBKTNV-1" source="sPBNxdajeekj3TMiFlpl-8" target="sPBNxdajeekj3TMiFlpl-5">
          <mxGeometry relative="1" as="geometry" />
        </mxCell>
        <mxCell id="sPBNxdajeekj3TMiFlpl-8" value="ID - Token" style="rounded=0;whiteSpace=wrap;html=1;" vertex="1" parent="WIyWlLk6GJQsqaUBKTNV-1">
          <mxGeometry x="160" y="-170" width="120" height="30" as="geometry" />
        </mxCell>
        <mxCell id="sPBNxdajeekj3TMiFlpl-10" value="Un solo Usuario&lt;br&gt;Id Unico - asoc(token)" style="rounded=1;whiteSpace=wrap;html=1;" vertex="1" parent="WIyWlLk6GJQsqaUBKTNV-1">
          <mxGeometry x="60" y="-110" width="120" height="60" as="geometry" />
        </mxCell>
        <mxCell id="sPBNxdajeekj3TMiFlpl-24" style="edgeStyle=orthogonalEdgeStyle;rounded=0;orthogonalLoop=1;jettySize=auto;html=1;exitX=0.5;exitY=1;exitDx=0;exitDy=0;entryX=0.5;entryY=0;entryDx=0;entryDy=0;" edge="1" parent="WIyWlLk6GJQsqaUBKTNV-1" source="sPBNxdajeekj3TMiFlpl-12" target="sPBNxdajeekj3TMiFlpl-8">
          <mxGeometry relative="1" as="geometry" />
        </mxCell>
        <mxCell id="sPBNxdajeekj3TMiFlpl-12" value="Token(grupo en firebase) - asociado(user/users)" style="rounded=1;whiteSpace=wrap;html=1;" vertex="1" parent="WIyWlLk6GJQsqaUBKTNV-1">
          <mxGeometry x="160" y="-260" width="120" height="60" as="geometry" />
        </mxCell>
        <mxCell id="sPBNxdajeekj3TMiFlpl-23" style="edgeStyle=orthogonalEdgeStyle;rounded=0;orthogonalLoop=1;jettySize=auto;html=1;exitX=0.5;exitY=1;exitDx=0;exitDy=0;entryX=0.5;entryY=0;entryDx=0;entryDy=0;" edge="1" parent="WIyWlLk6GJQsqaUBKTNV-1" source="sPBNxdajeekj3TMiFlpl-14" target="sPBNxdajeekj3TMiFlpl-12">
          <mxGeometry relative="1" as="geometry" />
        </mxCell>
        <mxCell id="sPBNxdajeekj3TMiFlpl-14" value="Temas para Suscribirte" style="rounded=1;whiteSpace=wrap;html=1;" vertex="1" parent="WIyWlLk6GJQsqaUBKTNV-1">
          <mxGeometry x="160" y="-350" width="120" height="60" as="geometry" />
        </mxCell>
        <mxCell id="sPBNxdajeekj3TMiFlpl-29" style="edgeStyle=orthogonalEdgeStyle;rounded=0;orthogonalLoop=1;jettySize=auto;html=1;entryX=0;entryY=0.5;entryDx=0;entryDy=0;" edge="1" parent="WIyWlLk6GJQsqaUBKTNV-1" source="sPBNxdajeekj3TMiFlpl-25" target="sPBNxdajeekj3TMiFlpl-28">
          <mxGeometry relative="1" as="geometry" />
        </mxCell>
        <mxCell id="sPBNxdajeekj3TMiFlpl-25" value="Datos De Notificacion" style="rounded=0;whiteSpace=wrap;html=1;" vertex="1" parent="WIyWlLk6GJQsqaUBKTNV-1">
          <mxGeometry x="30" y="440" width="100" height="60" as="geometry" />
        </mxCell>
        <mxCell id="sPBNxdajeekj3TMiFlpl-31" style="edgeStyle=orthogonalEdgeStyle;rounded=0;orthogonalLoop=1;jettySize=auto;html=1;entryX=0.5;entryY=1;entryDx=0;entryDy=0;entryPerimeter=0;" edge="1" parent="WIyWlLk6GJQsqaUBKTNV-1" source="sPBNxdajeekj3TMiFlpl-28" target="sPBNxdajeekj3TMiFlpl-4">
          <mxGeometry relative="1" as="geometry" />
        </mxCell>
        <mxCell id="sPBNxdajeekj3TMiFlpl-28" value="ID-Token(tema/sucribe)" style="rounded=1;whiteSpace=wrap;html=1;" vertex="1" parent="WIyWlLk6GJQsqaUBKTNV-1">
          <mxGeometry x="200" y="450" width="150" height="40" as="geometry" />
        </mxCell>
        <mxCell id="sPBNxdajeekj3TMiFlpl-35" style="edgeStyle=orthogonalEdgeStyle;rounded=0;orthogonalLoop=1;jettySize=auto;html=1;exitX=0.5;exitY=0;exitDx=0;exitDy=0;" edge="1" parent="WIyWlLk6GJQsqaUBKTNV-1" source="sPBNxdajeekj3TMiFlpl-32" target="sPBNxdajeekj3TMiFlpl-34">
          <mxGeometry relative="1" as="geometry" />
        </mxCell>
        <mxCell id="sPBNxdajeekj3TMiFlpl-32" value="Avisa" style="rounded=1;whiteSpace=wrap;html=1;" vertex="1" parent="WIyWlLk6GJQsqaUBKTNV-1">
          <mxGeometry x="520" y="240" width="120" height="60" as="geometry" />
        </mxCell>
        <mxCell id="sPBNxdajeekj3TMiFlpl-39" style="edgeStyle=orthogonalEdgeStyle;rounded=0;orthogonalLoop=1;jettySize=auto;html=1;entryX=1;entryY=0.5;entryDx=0;entryDy=0;" edge="1" parent="WIyWlLk6GJQsqaUBKTNV-1" source="sPBNxdajeekj3TMiFlpl-34" target="sPBNxdajeekj3TMiFlpl-38">
          <mxGeometry relative="1" as="geometry" />
        </mxCell>
        <mxCell id="sPBNxdajeekj3TMiFlpl-34" value="Token - Tema" style="rounded=1;whiteSpace=wrap;html=1;" vertex="1" parent="WIyWlLk6GJQsqaUBKTNV-1">
          <mxGeometry x="520" y="130" width="120" height="60" as="geometry" />
        </mxCell>
        <mxCell id="sPBNxdajeekj3TMiFlpl-40" style="edgeStyle=orthogonalEdgeStyle;rounded=0;orthogonalLoop=1;jettySize=auto;html=1;entryX=1;entryY=0.5;entryDx=0;entryDy=0;entryPerimeter=0;" edge="1" parent="WIyWlLk6GJQsqaUBKTNV-1" source="sPBNxdajeekj3TMiFlpl-38" target="sPBNxdajeekj3TMiFlpl-3">
          <mxGeometry relative="1" as="geometry" />
        </mxCell>
        <mxCell id="sPBNxdajeekj3TMiFlpl-38" value="Revice los datos del Back" style="rounded=1;whiteSpace=wrap;html=1;" vertex="1" parent="WIyWlLk6GJQsqaUBKTNV-1">
          <mxGeometry x="520" y="30" width="120" height="60" as="geometry" />
        </mxCell>
        <mxCell id="sPBNxdajeekj3TMiFlpl-46" style="edgeStyle=orthogonalEdgeStyle;rounded=0;orthogonalLoop=1;jettySize=auto;html=1;entryX=0.5;entryY=0;entryDx=0;entryDy=0;" edge="1" parent="WIyWlLk6GJQsqaUBKTNV-1" source="sPBNxdajeekj3TMiFlpl-42" target="sPBNxdajeekj3TMiFlpl-45">
          <mxGeometry relative="1" as="geometry" />
        </mxCell>
        <mxCell id="sPBNxdajeekj3TMiFlpl-42" value="Devuelve los datos de la notificacion" style="rounded=1;whiteSpace=wrap;html=1;" vertex="1" parent="WIyWlLk6GJQsqaUBKTNV-1">
          <mxGeometry x="30" y="30" width="120" height="60" as="geometry" />
        </mxCell>
        <mxCell id="sPBNxdajeekj3TMiFlpl-47" style="edgeStyle=orthogonalEdgeStyle;rounded=0;orthogonalLoop=1;jettySize=auto;html=1;" edge="1" parent="WIyWlLk6GJQsqaUBKTNV-1" source="sPBNxdajeekj3TMiFlpl-45" target="sPBNxdajeekj3TMiFlpl-0">
          <mxGeometry relative="1" as="geometry" />
        </mxCell>
        <mxCell id="sPBNxdajeekj3TMiFlpl-45" value="Token - id&amp;nbsp;" style="rounded=0;whiteSpace=wrap;html=1;" vertex="1" parent="WIyWlLk6GJQsqaUBKTNV-1">
          <mxGeometry x="40" y="140" width="80" height="20" as="geometry" />
        </mxCell>
        <mxCell id="sPBNxdajeekj3TMiFlpl-48" value="Lo muestra al Usuario" style="rounded=1;whiteSpace=wrap;html=1;" vertex="1" parent="WIyWlLk6GJQsqaUBKTNV-1">
          <mxGeometry x="194" y="255" width="190" height="30" as="geometry" />
        </mxCell>
        <mxCell id="sPBNxdajeekj3TMiFlpl-50" value="FRONT" style="whiteSpace=wrap;html=1;aspect=fixed;" vertex="1" parent="WIyWlLk6GJQsqaUBKTNV-1">
          <mxGeometry x="40" y="860" width="70" height="70" as="geometry" />
        </mxCell>
        <mxCell id="sPBNxdajeekj3TMiFlpl-51" value="SUSCRIPCIONES DE AUTOS&amp;nbsp;" style="rounded=0;whiteSpace=wrap;html=1;" vertex="1" parent="WIyWlLk6GJQsqaUBKTNV-1">
          <mxGeometry x="60" y="770" width="620" height="30" as="geometry" />
        </mxCell>
        <mxCell id="sPBNxdajeekj3TMiFlpl-52" value="OFERTAS DE AUTOS" style="rounded=1;whiteSpace=wrap;html=1;" vertex="1" parent="WIyWlLk6GJQsqaUBKTNV-1">
          <mxGeometry x="40" y="1010" width="120" height="60" as="geometry" />
        </mxCell>
        <mxCell id="sPBNxdajeekj3TMiFlpl-53" value="1 AUTO EN ESPECIFICO" style="rounded=1;whiteSpace=wrap;html=1;" vertex="1" parent="WIyWlLk6GJQsqaUBKTNV-1">
          <mxGeometry x="215" y="1010" width="120" height="60" as="geometry" />
        </mxCell>
        <mxCell id="sPBNxdajeekj3TMiFlpl-54" value="BackEnd" style="shape=cylinder3;whiteSpace=wrap;html=1;boundedLbl=1;backgroundOutline=1;size=15;" vertex="1" parent="WIyWlLk6GJQsqaUBKTNV-1">
          <mxGeometry x="660" y="1000" width="60" height="80" as="geometry" />
        </mxCell>
      </root>
    </mxGraphModel>
  </diagram>
</mxfile>
